<svg width="127" height="32" viewBox="0 0 127 32" fill="none" xmlns="http://www.w3.org/2000/svg">
<path d="M2.42238 12.8013L17.6637 28.0427L28.4488 17.2576V30.4643H0V2.01556H13.2081L2.42238 12.8013Z" fill="#E33629"/>
<path d="M29.9085 15.795L14.6693 0.555786H29.9085V15.795Z" fill="#E33629"/>
<g clip-path="url(#clip0_201_496)">
<path d="M53.309 30.4941H51.9453L55.8895 19.7524H57.2322L61.1764 30.4941H59.8127L56.6028 21.4518H56.5189L53.309 30.4941ZM53.8125 26.2982H59.3092V27.4521H53.8125V26.2982ZM68.2406 24.2421L67.1286 24.5568C67.0587 24.3715 66.9555 24.1914 66.8192 24.0166C66.6863 23.8383 66.5045 23.6914 66.2737 23.576C66.0429 23.4606 65.7474 23.4029 65.3873 23.4029C64.8943 23.4029 64.4834 23.5166 64.1547 23.7439C63.8295 23.9676 63.6669 24.2526 63.6669 24.5988C63.6669 24.9065 63.7788 25.1495 64.0026 25.3278C64.2264 25.5062 64.5761 25.6548 65.0516 25.7737L66.2475 26.0674C66.9678 26.2422 67.5045 26.5097 67.8577 26.8699C68.2108 27.2265 68.3874 27.6863 68.3874 28.2493C68.3874 28.7109 68.2545 29.1235 67.9888 29.4871C67.7265 29.8508 67.3594 30.1375 66.8873 30.3473C66.4153 30.5571 65.8663 30.662 65.2404 30.662C64.4187 30.662 63.7386 30.4837 63.2001 30.127C62.6617 29.7703 62.3207 29.2493 62.1774 28.564L63.3522 28.2703C63.4641 28.7039 63.6757 29.029 63.9869 29.2458C64.3016 29.4626 64.7124 29.571 65.2194 29.571C65.7964 29.571 66.2545 29.4486 66.5936 29.2039C66.9363 28.9556 67.1076 28.6584 67.1076 28.3122C67.1076 28.0325 67.0097 27.7982 66.8139 27.6094C66.6181 27.4171 66.3174 27.2737 65.9118 27.1793L64.5691 26.8646C63.8313 26.6898 63.2893 26.4188 62.9431 26.0517C62.6005 25.681 62.4291 25.2177 62.4291 24.6617C62.4291 24.2072 62.5568 23.8051 62.812 23.4554C63.0708 23.1057 63.4222 22.8312 63.8662 22.6319C64.3138 22.4326 64.8208 22.333 65.3873 22.333C66.1845 22.333 66.8104 22.5078 67.265 22.8575C67.723 23.2071 68.0482 23.6687 68.2406 24.2421ZM75.8095 24.2421L74.6976 24.5568C74.6276 24.3715 74.5245 24.1914 74.3881 24.0166C74.2553 23.8383 74.0734 23.6914 73.8427 23.576C73.6119 23.4606 73.3164 23.4029 72.9563 23.4029C72.4632 23.4029 72.0524 23.5166 71.7237 23.7439C71.3985 23.9676 71.2359 24.2526 71.2359 24.5988C71.2359 24.9065 71.3478 25.1495 71.5716 25.3278C71.7954 25.5062 72.145 25.6548 72.6206 25.7737L73.8164 26.0674C74.5367 26.2422 75.0735 26.5097 75.4266 26.8699C75.7798 27.2265 75.9564 27.6863 75.9564 28.2493C75.9564 28.7109 75.8235 29.1235 75.5578 29.4871C75.2955 29.8508 74.9284 30.1375 74.4563 30.3473C73.9843 30.5571 73.4353 30.662 72.8094 30.662C71.9877 30.662 71.3076 30.4837 70.7691 30.127C70.2306 29.7703 69.8897 29.2493 69.7463 28.564L70.9212 28.2703C71.0331 28.7039 71.2446 29.029 71.5558 29.2458C71.8705 29.4626 72.2814 29.571 72.7884 29.571C73.3654 29.571 73.8234 29.4486 74.1626 29.2039C74.5053 28.9556 74.6766 28.6584 74.6766 28.3122C74.6766 28.0325 74.5787 27.7982 74.3829 27.6094C74.1871 27.4171 73.8864 27.2737 73.4807 27.1793L72.138 26.8646C71.4002 26.6898 70.8583 26.4188 70.5121 26.0517C70.1694 25.681 69.9981 25.2177 69.9981 24.6617C69.9981 24.2072 70.1257 23.8051 70.381 23.4554C70.6397 23.1057 70.9911 22.8312 71.4352 22.6319C71.8828 22.4326 72.3898 22.333 72.9563 22.333C73.7535 22.333 74.3794 22.5078 74.834 22.8575C75.292 23.2071 75.6172 23.6687 75.8095 24.2421ZM80.9448 30.662C80.2175 30.662 79.5794 30.4889 79.0304 30.1427C78.4849 29.7966 78.0583 29.3123 77.7506 28.6899C77.4464 28.0675 77.2943 27.3402 77.2943 26.508C77.2943 25.6688 77.4464 24.9362 77.7506 24.3103C78.0583 23.6844 78.4849 23.1984 79.0304 22.8522C79.5794 22.506 80.2175 22.333 80.9448 22.333C81.6721 22.333 82.3085 22.506 82.854 22.8522C83.403 23.1984 83.8295 23.6844 84.1338 24.3103C84.4415 24.9362 84.5953 25.6688 84.5953 26.508C84.5953 27.3402 84.4415 28.0675 84.1338 28.6899C83.8295 29.3123 83.403 29.7966 82.854 30.1427C82.3085 30.4889 81.6721 30.662 80.9448 30.662ZM80.9448 29.55C81.4973 29.55 81.9518 29.4084 82.3085 29.1252C82.6652 28.842 82.9292 28.4696 83.1005 28.008C83.2718 27.5465 83.3575 27.0464 83.3575 26.508C83.3575 25.9695 83.2718 25.4677 83.1005 25.0027C82.9292 24.5376 82.6652 24.1617 82.3085 23.875C81.9518 23.5883 81.4973 23.4449 80.9448 23.4449C80.3923 23.4449 79.9378 23.5883 79.5811 23.875C79.2245 24.1617 78.9605 24.5376 78.7891 25.0027C78.6178 25.4677 78.5321 25.9695 78.5321 26.508C78.5321 27.0464 78.6178 27.5465 78.7891 28.008C78.9605 28.4696 79.2245 28.842 79.5811 29.1252C79.9378 29.4084 80.3923 29.55 80.9448 29.55ZM89.61 30.662C88.8547 30.662 88.2043 30.4837 87.6589 30.127C87.1134 29.7703 86.6938 29.2791 86.4001 28.6532C86.1063 28.0273 85.9595 27.3122 85.9595 26.508C85.9595 25.6897 86.1098 24.9677 86.4105 24.3418C86.7148 23.7124 87.1379 23.2211 87.6798 22.868C88.2253 22.5113 88.8617 22.333 89.589 22.333C90.1555 22.333 90.666 22.4379 91.1205 22.6477C91.5751 22.8575 91.9475 23.1512 92.2377 23.5288C92.5279 23.9065 92.708 24.347 92.7779 24.8506H91.5401C91.4457 24.4834 91.2359 24.1582 90.9107 23.875C90.589 23.5883 90.1555 23.4449 89.61 23.4449C89.1274 23.4449 88.7043 23.5708 88.3407 23.8225C87.9805 24.0708 87.6991 24.4222 87.4963 24.8768C87.2969 25.3278 87.1973 25.8576 87.1973 26.466C87.1973 27.0884 87.2952 27.6304 87.491 28.0919C87.6903 28.5535 87.9701 28.9119 88.3302 29.1672C88.6939 29.4224 89.1204 29.55 89.61 29.55C89.9317 29.55 90.2236 29.4941 90.4859 29.3822C90.7481 29.2703 90.9702 29.1095 91.152 28.8997C91.3338 28.6899 91.4632 28.4381 91.5401 28.1444H92.7779C92.708 28.6199 92.5349 29.0483 92.2587 29.4294C91.986 29.807 91.624 30.1078 91.173 30.3315C90.7254 30.5518 90.2044 30.662 89.61 30.662ZM94.4398 30.4941V22.4379H95.6776V30.4941H94.4398ZM95.0692 21.0952C94.8279 21.0952 94.6198 21.013 94.445 20.8486C94.2737 20.6843 94.188 20.4867 94.188 20.256C94.188 20.0252 94.2737 19.8276 94.445 19.6633C94.6198 19.4989 94.8279 19.4168 95.0692 19.4168C95.3104 19.4168 95.5167 19.4989 95.6881 19.6633C95.8629 19.8276 95.9503 20.0252 95.9503 20.256C95.9503 20.4867 95.8629 20.6843 95.6881 20.8486C95.5167 21.013 95.3104 21.0952 95.0692 21.0952ZM100.168 30.683C99.6572 30.683 99.1939 30.5868 98.7778 30.3945C98.3617 30.1987 98.0313 29.9172 97.7865 29.55C97.5418 29.1794 97.4194 28.7318 97.4194 28.2073C97.4194 27.7458 97.5103 27.3716 97.6921 27.0849C97.8739 26.7947 98.117 26.5674 98.4212 26.4031C98.7254 26.2387 99.061 26.1163 99.4282 26.0359C99.7988 25.952 100.171 25.8856 100.545 25.8366C101.035 25.7737 101.432 25.7265 101.736 25.695C102.044 25.66 102.267 25.6023 102.407 25.5219C102.551 25.4415 102.622 25.3016 102.622 25.1023V25.0604C102.622 24.5428 102.481 24.1407 102.198 23.854C101.918 23.5673 101.493 23.4239 100.923 23.4239C100.332 23.4239 99.8688 23.5533 99.5331 23.812C99.1974 24.0708 98.9614 24.347 98.825 24.6408L97.6502 24.2212C97.86 23.7316 98.1397 23.3505 98.4893 23.0778C98.8425 22.8015 99.2271 22.6092 99.6432 22.5008C100.063 22.3889 100.475 22.333 100.881 22.333C101.14 22.333 101.437 22.3644 101.773 22.4274C102.112 22.4868 102.439 22.6109 102.754 22.7998C103.072 22.9886 103.336 23.2736 103.545 23.6547C103.755 24.0358 103.86 24.5463 103.86 25.1862V30.4941H102.622V29.4032H102.559C102.476 29.578 102.336 29.7651 102.14 29.9644C101.944 30.1637 101.684 30.3333 101.358 30.4732C101.033 30.613 100.636 30.683 100.168 30.683ZM100.357 29.571C100.846 29.571 101.259 29.4749 101.594 29.2826C101.934 29.0902 102.189 28.842 102.36 28.5378C102.535 28.2336 102.622 27.9136 102.622 27.5779V26.445C102.57 26.508 102.455 26.5657 102.276 26.6181C102.101 26.6671 101.899 26.7108 101.668 26.7492C101.441 26.7842 101.218 26.8157 101.002 26.8436C100.788 26.8681 100.615 26.8891 100.482 26.9066C100.161 26.9485 99.86 27.0167 99.5803 27.1111C99.3041 27.202 99.0803 27.3402 98.9089 27.5255C98.7411 27.7073 98.6572 27.9556 98.6572 28.2703C98.6572 28.7004 98.8163 29.0255 99.1345 29.2458C99.4562 29.4626 99.8635 29.571 100.357 29.571ZM109.475 22.4379V23.4869H105.3V22.4379H109.475ZM106.517 20.5077H107.755V28.1864C107.755 28.536 107.806 28.7983 107.907 28.9731C108.012 29.1444 108.145 29.2598 108.306 29.3193C108.47 29.3752 108.643 29.4032 108.825 29.4032C108.961 29.4032 109.073 29.3962 109.161 29.3822C109.248 29.3647 109.318 29.3507 109.371 29.3402L109.622 30.4522C109.538 30.4837 109.421 30.5151 109.271 30.5466C109.121 30.5816 108.93 30.599 108.699 30.599C108.349 30.599 108.007 30.5239 107.671 30.3735C107.339 30.2232 107.063 29.9941 106.842 29.6864C106.626 29.3787 106.517 28.9906 106.517 28.522V20.5077ZM114.481 30.662C113.705 30.662 113.035 30.4906 112.472 30.148C111.913 29.8018 111.481 29.3193 111.177 28.7004C110.876 28.078 110.725 27.3542 110.725 26.5289C110.725 25.7037 110.876 24.9764 111.177 24.347C111.481 23.7141 111.904 23.2211 112.446 22.868C112.991 22.5113 113.628 22.333 114.355 22.333C114.775 22.333 115.189 22.4029 115.598 22.5428C116.007 22.6826 116.38 22.9099 116.715 23.2246C117.051 23.5358 117.318 23.9484 117.518 24.4624C117.717 24.9764 117.817 25.6093 117.817 26.3611V26.8856H111.607V25.8156H116.558C116.558 25.3611 116.467 24.9555 116.285 24.5988C116.107 24.2421 115.852 23.9607 115.519 23.7544C115.191 23.5481 114.803 23.4449 114.355 23.4449C113.862 23.4449 113.435 23.5673 113.075 23.812C112.719 24.0533 112.444 24.368 112.252 24.7561C112.059 25.1443 111.963 25.5604 111.963 26.0044V26.7178C111.963 27.3262 112.068 27.8419 112.278 28.265C112.491 28.6846 112.787 29.0046 113.164 29.2249C113.542 29.4416 113.981 29.55 114.481 29.55C114.806 29.55 115.1 29.5046 115.362 29.4137C115.628 29.3193 115.857 29.1794 116.049 28.9941C116.241 28.8053 116.39 28.571 116.495 28.2913L117.691 28.6269C117.565 29.0325 117.353 29.3892 117.056 29.6969C116.759 30.0011 116.392 30.2389 115.955 30.4102C115.518 30.5781 115.026 30.662 114.481 30.662ZM125.258 24.2421L124.147 24.5568C124.077 24.3715 123.973 24.1914 123.837 24.0166C123.704 23.8383 123.522 23.6914 123.292 23.576C123.061 23.4606 122.765 23.4029 122.405 23.4029C121.912 23.4029 121.501 23.5166 121.173 23.7439C120.847 23.9676 120.685 24.2526 120.685 24.5988C120.685 24.9065 120.797 25.1495 121.021 25.3278C121.244 25.5062 121.594 25.6548 122.07 25.7737L123.265 26.0674C123.986 26.2422 124.522 26.5097 124.876 26.8699C125.229 27.2265 125.405 27.6863 125.405 28.2493C125.405 28.7109 125.272 29.1235 125.007 29.4871C124.744 29.8508 124.377 30.1375 123.905 30.3473C123.433 30.5571 122.884 30.662 122.258 30.662C121.437 30.662 120.757 30.4837 120.218 30.127C119.68 29.7703 119.339 29.2493 119.195 28.564L120.37 28.2703C120.482 28.7039 120.694 29.029 121.005 29.2458C121.319 29.4626 121.73 29.571 122.237 29.571C122.814 29.571 123.272 29.4486 123.612 29.2039C123.954 28.9556 124.126 28.6584 124.126 28.3122C124.126 28.0325 124.028 27.7982 123.832 27.6094C123.636 27.4171 123.335 27.2737 122.93 27.1793L121.587 26.8646C120.849 26.6898 120.307 26.4188 119.961 26.0517C119.618 25.681 119.447 25.2177 119.447 24.6617C119.447 24.2072 119.575 23.8051 119.83 23.4554C120.089 23.1057 120.44 22.8312 120.884 22.6319C121.332 22.4326 121.839 22.333 122.405 22.333C123.202 22.333 123.828 22.5078 124.283 22.8575C124.741 23.2071 125.066 23.6687 125.258 24.2421Z" fill="#404040"/>
<path d="M49.0518 30.6193L45.9894 30.582L38.6252 23.3188L40.2311 21.7129L49.0518 30.6193Z" fill="#A2A2A2"/>
<path d="M44.6559 30.5902L41.7083 30.5805L38.3499 27.2234L39.906 25.7891L44.6559 30.5902Z" fill="#A2A2A2"/>
<path d="M42.409 19.6264L40.803 21.2324L44.2243 24.6537L45.8303 23.0477L42.409 19.6264Z" fill="#A2A2A2"/>
<path d="M47.2041 25.8723L46.6407 26.4357C46.3528 26.7236 46.3528 27.1904 46.6407 27.4783L47.1014 27.939C47.3893 28.2269 47.8561 28.2269 48.144 27.939L48.7074 27.3756C48.9953 27.0877 48.9953 26.6209 48.7074 26.333L48.2467 25.8723C47.9588 25.5844 47.492 25.5844 47.2041 25.8723Z" fill="#A2A2A2"/>
<path d="M48.1035 0.656006L42.319 7.74216H42.1087V0.656006H38.7102V16.7288H42.1087V12.1615L43.6178 10.3191L43.6897 10.2305L43.7796 10.1199L43.7879 10.1323L46.7342 7.22345L52.1771 0.656006H48.1035ZM47.4617 9.68832L45.0702 12.055L48.1824 16.7302H52.2476L47.4617 9.6897V9.68832Z" fill="#404040"/>
<path d="M64.221 6.62522C63.8724 5.94745 63.3855 5.42736 62.7603 5.06496C62.1351 4.6998 61.4034 4.5186 60.5666 4.5186C59.6509 4.5186 58.8901 4.72055 58.2829 5.12721C57.6757 5.53387 57.2358 6.0913 56.9647 6.80227H56.8236V0.658081H53.5745V16.7309H56.9191V9.76094C56.9246 9.24362 57.0242 8.79961 57.2192 8.43168C57.4156 8.06236 57.6881 7.78157 58.0367 7.58792C58.3839 7.39428 58.785 7.29745 59.2414 7.29745C59.9206 7.29745 60.4517 7.50355 60.8294 7.91575C61.2097 8.32932 61.3965 8.9075 61.3909 9.65166V16.7309H64.7341V9.0555C64.7397 8.11354 64.5682 7.30299 64.221 6.62522Z" fill="#404040"/>
<path d="M76.8739 6.74937C76.5959 6.23482 76.2183 5.81156 75.7397 5.48236C75.2611 5.15177 74.7134 4.90833 74.0979 4.75064C73.4837 4.59573 72.8419 4.5155 72.1724 4.5155C71.2097 4.5155 70.3632 4.66074 69.6329 4.95121C68.9039 5.24168 68.3078 5.65526 67.8472 6.19194C67.3852 6.72724 67.0781 7.36213 66.9204 8.09523L70.0119 8.34559C70.1281 7.94861 70.3632 7.61664 70.7187 7.35383C71.0742 7.08964 71.5541 6.95686 72.1545 6.95686C72.7243 6.95686 73.1656 7.09379 73.4768 7.3649C73.788 7.63739 73.9429 8.02192 73.9429 8.51987V8.5669C73.9429 8.82418 73.8461 9.01783 73.6525 9.14785C73.4588 9.27925 73.1476 9.37746 72.7188 9.44109C72.2886 9.5061 71.7229 9.57526 71.023 9.64995C70.4268 9.70666 69.8583 9.80764 69.3147 9.94734C68.7739 10.0884 68.2912 10.2987 67.8665 10.5767C67.4433 10.8533 67.1099 11.2199 66.8623 11.6736C66.6175 12.13 66.4944 12.6916 66.4944 13.3625C66.4944 14.1578 66.6673 14.819 67.0159 15.3515C67.363 15.8827 67.8389 16.281 68.4406 16.5508C69.0422 16.8205 69.7283 16.9546 70.4974 16.9546C71.0935 16.9546 71.6192 16.8758 72.0742 16.7167C72.5307 16.5563 72.9194 16.335 73.2444 16.05C73.5695 15.7651 73.8267 15.4331 74.0204 15.0569H74.1158V16.7306H77.2861V8.59872C77.2861 7.8836 77.1478 7.26669 76.8712 6.75076L76.8739 6.74937ZM73.9706 12.4205C73.9706 12.8438 73.8613 13.2228 73.6469 13.5575C73.4325 13.8922 73.1365 14.1578 72.7603 14.3542C72.3841 14.5493 71.9497 14.6475 71.4587 14.6475C70.9677 14.6475 70.5223 14.5285 70.1903 14.292C69.8583 14.0541 69.6924 13.7055 69.6924 13.2518C69.6924 12.9378 69.774 12.675 69.9358 12.4634C70.0962 12.2504 70.3245 12.0816 70.6191 11.9571C70.911 11.8313 71.2554 11.74 71.6468 11.6819C71.8294 11.6556 72.0341 11.6252 72.2582 11.592C72.4823 11.5574 72.7077 11.5173 72.9318 11.473C73.1559 11.4301 73.3606 11.3803 73.5404 11.325C73.7216 11.2697 73.8641 11.2088 73.9692 11.1424V12.4219L73.9706 12.4205Z" fill="#404040"/>
<path d="M86.3823 4.53421C86.1887 4.51347 86.0089 4.50378 85.8415 4.50378C85.1651 4.50378 84.569 4.69605 84.0517 5.08058C83.5343 5.46373 83.165 6.03084 82.9451 6.77915H82.8206V4.6753H79.5784V16.7299H82.923V9.90934C82.923 9.41692 83.0336 8.9826 83.2549 8.60636C83.4776 8.23013 83.7819 7.93551 84.1651 7.72388C84.551 7.51087 84.9881 7.40575 85.4805 7.40575C85.7101 7.40575 85.9646 7.42511 86.2413 7.46107C86.5193 7.49704 86.7351 7.53853 86.8927 7.58694V4.61997C86.7461 4.58401 86.576 4.55496 86.3823 4.53421Z" fill="#404040"/>
<path d="M95.5798 13.3976C95.3779 13.6978 95.1248 13.926 94.8177 14.0837C94.512 14.2414 94.1676 14.3202 93.7858 14.3202C93.2685 14.3202 92.8162 14.1791 92.4289 13.8956C92.0416 13.6134 91.7428 13.2026 91.5298 12.6631C91.3168 12.1251 91.2117 11.4708 91.2117 10.7018C91.2117 9.9327 91.3182 9.29642 91.5326 8.76389C91.747 8.22997 92.0471 7.82331 92.4317 7.5439C92.8176 7.2645 93.2685 7.12341 93.7844 7.12341C94.3986 7.12341 94.8924 7.306 95.2728 7.6767C95.6518 8.04463 95.8869 8.53013 95.974 9.13182H99.1305C99.0821 8.20093 98.8304 7.39037 98.3684 6.69877C97.9091 6.00855 97.2826 5.47325 96.4928 5.09149C95.7029 4.70972 94.7817 4.51746 93.7305 4.51746C92.5105 4.51746 91.4593 4.78027 90.574 5.30727C89.6915 5.83289 89.0082 6.56183 88.5297 7.49549C88.0511 8.43054 87.8118 9.51359 87.8118 10.7488C87.8118 11.984 88.0483 13.0463 88.5227 13.9827C88.9958 14.9191 89.6749 15.6509 90.5616 16.1765C91.4496 16.7035 92.5091 16.9663 93.7457 16.9663C94.8177 16.9663 95.7472 16.7699 96.5315 16.377C97.3158 15.9842 97.9313 15.4406 98.3794 14.7407C98.8276 14.0422 99.0766 13.233 99.1291 12.3118H95.9727C95.9104 12.7351 95.779 13.0988 95.5771 13.399L95.5798 13.3976Z" fill="#404040"/>
<path d="M111.616 6.62522C111.269 5.94745 110.782 5.42736 110.157 5.06496C109.532 4.6998 108.8 4.5186 107.963 4.5186C107.047 4.5186 106.285 4.72055 105.678 5.12721C105.071 5.53387 104.632 6.0913 104.36 6.80227H104.22V0.658081H100.971V16.7309H104.314V9.76094C104.32 9.24362 104.419 8.79961 104.617 8.43168C104.812 8.06236 105.086 7.78157 105.433 7.58792C105.78 7.39428 106.183 7.29745 106.638 7.29745C107.318 7.29745 107.848 7.50355 108.229 7.91575C108.608 8.32932 108.794 8.9075 108.789 9.65166V16.7309H112.133V9.0555C112.139 8.11354 111.967 7.30299 111.619 6.62522H111.616Z" fill="#404040"/>
<path d="M119.655 9.48397H122.337C122.337 9.00399 122.233 8.57658 122.025 8.2045C121.816 7.83242 121.525 7.54195 121.157 7.33032C120.788 7.11731 120.361 7.01218 119.874 7.01218C119.387 7.01218 118.918 7.12837 118.529 7.36075C118.139 7.59451 117.835 7.90573 117.615 8.29441C117.605 8.31101 117.594 8.33038 117.586 8.34974C116.761 9.86712 117.365 12.4177 117.365 12.4177C117.421 12.6681 117.503 12.8977 117.609 13.1093C117.832 13.5451 118.147 13.8784 118.557 14.1136C118.965 14.3501 119.449 14.4677 120.009 14.4677C120.381 14.4677 120.72 14.4165 121.029 14.31C121.336 14.2048 121.601 14.0485 121.823 13.8397C122.043 13.6294 122.21 13.3735 122.323 13.0706L125.415 13.2739C125.257 14.0153 124.938 14.6641 124.453 15.2146C123.969 15.7679 123.347 16.1966 122.585 16.5023C121.824 16.808 120.946 16.9616 119.952 16.9616C118.712 16.9616 117.647 16.7098 116.753 16.205C115.861 15.6987 115.175 14.9836 114.694 14.0527C114.214 13.1246 113.973 12.0249 113.973 10.7537C113.973 9.48259 114.214 8.42582 114.694 7.48939C115.176 6.55296 115.855 5.82263 116.731 5.29978C117.608 4.77831 118.636 4.5155 119.82 4.5155C120.615 4.5155 121.356 4.64276 122.044 4.89588C122.731 5.15039 123.333 5.53077 123.848 6.03841C124.362 6.54604 124.765 7.18232 125.052 7.94999C125.341 8.71629 125.484 9.6126 125.484 10.6376V11.5546H117.56L119.654 9.48259L119.655 9.48397Z" fill="#404040"/>
<path d="M43.688 10.2324L43.6165 10.3191L43.6096 10.3094L43.688 10.2324Z" fill="#404040"/>
</g>
<defs>
<clipPath id="clip0_201_496">
<rect width="88.3161" height="31.0201" fill="white" transform="translate(38.6672)"/>
</clipPath>
</defs>
</svg>
